<?xml version="1.0" encoding="UTF-8"?>
<svg width="24px" height="28px" viewBox="0 0 24 28" version="1.1" xmlns="http://www.w3.org/2000/svg" xmlns:xlink="http://www.w3.org/1999/xlink">
    <!-- Generator: Sketch 52.6 (67491) - http://www.bohemiancoding.com/sketch -->
    <title>Shape</title>
    <desc>Created with Sketch.</desc>
    <g id="Web-Design" stroke="none" stroke-width="1" fill="none" fill-rule="evenodd">
        <g id="Careers" transform="translate(-278.000000, -3092.000000)" fill="#90BD45">
            <g id="Group-21-Copy-2" transform="translate(0.000000, 2002.000000)">
                <g id="Group-26" transform="translate(80.000000, 951.000000)">
                    <g id="Group-38" transform="translate(47.000000, 137.000000)">
                        <g id="TECH">
                            <g id="Group-7">
                                <g id="Group-11">
                                    <g id="Group-34" transform="translate(51.000000, 0.000000)">
                                        <g id="Group-10" transform="translate(100.000000, 2.000000)">
                                            <path d="M-9.41469125e-14,10.5390777 L0.00113656412,17.6110638 C0.00142070515,18.546172 0.757519989,19.3008505 1.69035499,19.3008505 C2.62319,19.3008505 3.37928928,18.546172 3.37843686,17.6116321 L3.37843686,10.5387936 C3.37786858,9.60681099 2.62120101,8.84985928 1.68836601,8.85042756 C0.756099283,8.84985928 0.000284141031,9.60737927 -9.41469125e-14,10.5390777 Z M16.4861468,0.347507209 C16.5489419,0.234987361 16.5074573,0.091780281 16.3938009,0.027848549 C16.2787238,-0.0326734906 16.1366533,0.0085269589 16.0758471,0.121615089 L14.8852962,2.29643054 C13.8834149,1.8508974 12.7624785,1.60113744 11.5761897,1.602274 C10.3933106,1.60113744 9.27265841,1.85032912 8.2747551,2.29387327 L7.08306762,0.1244565 C7.02112488,0.0102318051 6.87848608,-0.0315369265 6.76596623,0.0306899593 C6.65145739,0.0929168451 6.60940452,0.236123925 6.67305211,0.348075491 L7.85195325,2.4990231 C5.53506728,3.69383613 3.96973434,5.96980579 3.97115312,8.58191429 L19.1837817,8.58020944 C19.1837817,5.96810094 17.6212902,3.69781411 15.3075298,2.49959138 L16.4861468,0.347507209 Z M7.48058092,5.18898624 C7.48058092,4.8383562 7.76557438,4.5502372 8.11705683,4.5502372 C8.46939171,4.5502372 8.75495345,4.8383562 8.75523759,5.18898624 C8.75523759,5.54018455 8.46939171,5.82603043 8.11620441,5.82603043 C7.7664268,5.82546215 7.48058092,5.54075283 7.48058092,5.18898624 Z M14.405382,5.18728139 C14.4068027,4.83778792 14.6912279,4.54966892 15.0432786,4.54796407 C15.3930562,4.54910063 15.6800387,4.83778792 15.6797545,5.18784967 C15.6806069,5.53961627 15.3944769,5.82489386 15.0432786,5.82489386 C14.691512,5.82546215 14.405382,5.54018455 14.405382,5.18728139 Z M4.03537092,20.1294058 C4.03480264,21.1261725 4.84119489,21.9308599 5.83739334,21.9308599 L7.06431431,21.9314282 L7.06601916,25.6735656 C7.06545088,26.605264 7.82297087,27.362784 8.75353274,27.362784 C9.68636775,27.362784 10.442467,26.6046957 10.4427512,25.672429 L10.4416146,21.9314282 L12.7215622,21.9308599 L12.7224147,25.672429 C12.7224147,26.6035592 13.4802188,27.3622157 14.4107807,27.3605109 C15.3438998,27.3610792 16.1002832,26.6029909 16.0999991,25.6712925 L16.0988625,21.9302916 L17.3303298,21.9291551 C18.3242551,21.9297234 19.1326363,21.1238994 19.1332046,20.1265644 L19.1312156,9.16667653 L4.03281365,9.16951794 L4.03537092,20.1294058 Z M21.4716853,8.84843857 C20.5391344,8.84787029 19.7836034,9.604822 19.7836034,10.537657 L19.7850241,17.6102114 C19.78474,18.5436147 20.540271,19.2982933 21.4733901,19.2982933 C22.405941,19.2982933 23.161472,18.5436147 23.161472,17.6090748 L23.1603354,10.5370887 C23.1603354,9.60425372 22.4045203,8.84787029 21.4716853,8.84843857 Z" id="Shape"></path>
                                        </g>
                                    </g>
                                </g>
                            </g>
                        </g>
                    </g>
                </g>
            </g>
        </g>
    </g>
</svg>