<?xml version="1.0" encoding="UTF-8"?>
<svg width="30px" height="24px" viewBox="0 0 30 24" version="1.1" xmlns="http://www.w3.org/2000/svg" xmlns:xlink="http://www.w3.org/1999/xlink">
    <!-- Generator: Sketch 52.6 (67491) - http://www.bohemiancoding.com/sketch -->
    <title>Shape</title>
    <desc>Created with Sketch.</desc>
    <g id="Web-Design" stroke="none" stroke-width="1" fill="none" fill-rule="evenodd">
        <g id="Careers" transform="translate(-755.000000, -3210.000000)" fill="#F7A80D" fill-rule="nonzero">
            <g id="Group-21-Copy-2" transform="translate(0.000000, 2002.000000)">
                <g id="Group-26" transform="translate(80.000000, 951.000000)">
                    <g id="Group-38" transform="translate(47.000000, 137.000000)">
                        <g id="TECH">
                            <g id="Group-7">
                                <g id="Group-11">
                                    <g id="Group-36" transform="translate(63.000000, 117.000000)">
                                        <g id="Group-28" transform="translate(565.000000, 0.000000)">
                                            <g id="amazonwebservices-original" transform="translate(0.000000, 3.000000)">
                                                <path d="M8.83071429,14.8728571 L6.11642857,16.0385714 L8.63047619,17.1133333 L11.545,16.0385714 L8.83071429,14.8728571 Z M4.7502381,16.33 L4.65928571,21.5761905 L8.63047619,23.325 L8.63047619,17.8783333 L4.7502381,16.33 Z M12.9111905,16.33 L9.32238095,17.6964286 L9.32238095,22.8333333 L12.9111905,21.3759524 L12.9111905,16.33 Z M17.1919048,0.00833333333 L14.4595238,1.17404762 L16.9916667,2.24904762 L19.9061905,1.17404762 L17.1919048,0.00833333333 Z M13.4028571,1.55666667 L13.4028571,6.80285714 L16.7911905,7.78666667 L16.9004762,3.01380952 L13.4028571,1.55666667 Z M20.9809524,1.84809524 L17.7747619,3.21428571 L17.7747619,8.36952381 L20.9809524,6.91214286 L20.9809524,1.84809524 Z M4.35857143,7.39214286 L1.64452381,8.55809524 L4.15833333,9.63285714 L7.07285714,8.55809524 L4.35857143,7.39214286 Z M0.278095238,8.84952381 L0.187142857,14.0957143 L4.15833333,15.8445238 L4.15833333,10.3978571 L0.278095238,8.84952381 Z M8.43880952,8.84952381 L4.85047619,10.2157143 L4.85047619,15.352381 L8.43880952,13.8952381 L8.43880952,8.84952381 Z M13.102381,7.19785714 L10.3880952,8.36380952 L12.9019048,9.43857143 L15.8164286,8.36380952 L13.102381,7.19785714 Z M9.02214286,8.6552381 L8.93095238,13.9016667 L12.9021429,15.6504762 L12.9021429,10.2035714 L9.02214286,8.6552381 Z M17.1828571,8.6552381 L13.5942857,10.0214286 L13.5942857,15.1585714 L17.1828571,13.7011905 L17.1828571,8.6552381 Z M25.732381,0.00833333333 L23.0183333,1.17404762 L25.532381,2.24904762 L28.4469048,1.17404762 L25.732381,0.00833333333 Z M21.6521429,1.46571429 L21.5611905,6.71190476 L25.532381,8.46047619 L25.532381,3.01380952 L21.6521429,1.46571429 Z M29.8128571,1.46571429 L26.2245238,2.83190476 L26.2245238,7.96880952 L29.8128571,6.51166667 L29.8128571,1.46571429 Z" id="Shape"></path>
                                            </g>
                                        </g>
                                    </g>
                                </g>
                            </g>
                        </g>
                    </g>
                </g>
            </g>
        </g>
    </g>
</svg>