<?xml version="1.0" encoding="UTF-8"?>
<svg width="23px" height="23px" viewBox="0 0 23 23" version="1.1" xmlns="http://www.w3.org/2000/svg" xmlns:xlink="http://www.w3.org/1999/xlink">
    <!-- Generator: Sketch 52.6 (67491) - http://www.bohemiancoding.com/sketch -->
    <title>Shape</title>
    <desc>Created with Sketch.</desc>
    <g id="Web-Design" stroke="none" stroke-width="1" fill="none" fill-rule="evenodd">
        <g id="Careers" transform="translate(-845.000000, -3151.000000)" fill="#5B4282" fill-rule="nonzero">
            <g id="Group-21-Copy-2" transform="translate(0.000000, 2002.000000)">
                <g id="Group-26" transform="translate(80.000000, 951.000000)">
                    <g id="Group-38" transform="translate(47.000000, 137.000000)">
                        <g id="TECH">
                            <g id="Group-7">
                                <g id="Group-11">
                                    <g id="Group-35" transform="translate(185.000000, 59.000000)">
                                        <g id="Group-27" transform="translate(533.000000, 0.000000)">
                                            <path d="M13.744984,13.702952 C13.315528,13.56164 12.697288,13.592 11.890264,13.592 L8.648,13.592 L8.648,17.824 L12.115296,17.824 C12.656992,17.824 13.037504,17.76604 13.256648,17.72556 C13.642864,17.656376 13.965784,17.522424 14.225224,17.360872 C14.48448,17.199688 14.697736,16.955152 14.865176,16.646768 C15.032248,16.338384 15.115968,15.97756 15.115968,15.574048 C15.115968,15.101536 14.994896,14.738688 14.752568,14.389824 C14.510424,14.04096 14.174624,13.844264 13.744984,13.702952 Z M13.299888,11.768008 C13.726216,11.641416 14.047664,11.420248 14.263864,11.1264 C14.480248,10.832368 14.588256,10.458296 14.588256,10.014304 C14.588256,9.59368 14.48724,9.220528 14.285392,8.900368 C14.083544,8.580208 13.795584,8.456376 13.420776,8.338064 C13.045968,8.22012 12.403256,8.256 11.492456,8.256 L8.648,8.256 L8.648,11.936 L11.700008,11.936 C12.443736,11.936 12.976784,11.86608 13.299888,11.768008 Z M23,5.059 C23,3.369512 21.630488,2 19.941,2 L3.059,2 C1.369512,2 0,3.369512 0,5.059 L0,21.941 C0,23.630488 1.369512,25 3.059,25 L19.941,25 C21.630488,25 23,23.630488 23,21.941 L23,5.059 Z M16.477752,17.22508 C16.227144,17.735312 15.917104,18.128704 15.548184,18.40544 C15.17908,18.682176 14.71632,18.91696 14.160088,19.058272 C13.60404,19.199768 12.922136,19.296 12.115296,19.296 L6.992,19.296 L6.992,6.6 L12.03728,6.6 C13.005856,6.6 13.78252,6.712056 14.36764,6.968368 C14.952944,7.225048 15.411104,7.611816 15.742856,8.145048 C16.07424,8.67828 16.240024,9.231936 16.240024,9.814112 C16.240024,10.355992 16.092824,10.864384 15.798976,11.342784 C15.504944,11.821552 15.060952,12.20648 14.467368,12.500512 C15.233912,12.72536 15.823448,13.108448 16.235608,13.650144 C16.647768,14.192024 16.853848,14.831792 16.853848,15.569632 C16.853848,16.1634 16.728544,16.715032 16.477752,17.22508 Z" id="Shape"></path>
                                        </g>
                                    </g>
                                </g>
                            </g>
                        </g>
                    </g>
                </g>
            </g>
        </g>
    </g>
</svg>