<?xml version="1.0" encoding="UTF-8"?>
<svg width="28px" height="25px" viewBox="0 0 28 25" version="1.1" xmlns="http://www.w3.org/2000/svg" xmlns:xlink="http://www.w3.org/1999/xlink">
    <!-- Generator: Sketch 52.6 (67491) - http://www.bohemiancoding.com/sketch -->
    <title>gitlab-original</title>
    <desc>Created with Sketch.</desc>
    <g id="Web-Design" stroke="none" stroke-width="1" fill="none" fill-rule="evenodd">
        <g id="Careers" transform="translate(-1085.000000, -3208.000000)">
            <g id="Group-21-Copy-2" transform="translate(0.000000, 2002.000000)">
                <g id="Group-26" transform="translate(80.000000, 951.000000)">
                    <g id="Group-38" transform="translate(47.000000, 137.000000)">
                        <g id="TECH">
                            <g id="Group-7">
                                <g id="Group-11">
                                    <g id="Group-36" transform="translate(63.000000, 117.000000)">
                                        <g id="Group-8-Copy-3" transform="translate(895.000000, 0.000000)">
                                            <g id="gitlab-original" transform="translate(0.000000, 1.000000)">
                                                <path d="M27.0721983,14.2909483 L25.55625,9.62564655 L22.5517241,0.379310345 C22.3974138,-0.0961206897 21.7241379,-0.0961206897 21.5698276,0.379310345 L18.5655172,9.62564655 L8.58965517,9.62564655 L5.58534483,0.379310345 C5.43081897,-0.0961206897 4.75775862,-0.0961206897 4.60323276,0.379310345 L1.59913793,9.62586207 L0.0829741379,14.2909483 C-0.0553616831,14.7164556 0.0960328696,15.1826464 0.457974138,15.4456897 L13.5775862,24.9771552 L26.6969828,15.4454741 C27.058773,15.1824193 27.2101429,14.7163913 27.0719828,14.2909483" id="Path" fill="#FC6D26"></path>
                                                <polygon id="Path" fill="#E24329" points="13.5775862 24.9771552 18.5655172 9.62586207 8.58965517 9.62586207 13.5775862 24.9769397"></polygon>
                                                <polygon id="Path" fill="#FC6D26" points="13.5775862 24.9771552 8.58965517 9.62586207 1.59913793 9.62586207 13.5775862 24.9769397"></polygon>
                                                <path d="M1.59913793,9.62564655 L0.0827586207,14.2909483 C-0.0556154984,14.7163913 0.0957952823,15.1825451 0.457758621,15.4454741 L13.5775862,24.9771552 L1.59913793,9.62586207 L1.59913793,9.62564655 Z" id="Path" fill="#FCA326"></path>
                                                <path d="M1.59913793,9.62564655 L8.58965517,9.62564655 L5.58534483,0.379310345 C5.43081897,-0.0961206897 4.75775862,-0.0961206897 4.60323276,0.379310345 L1.59913793,9.62586207 L1.59913793,9.62564655 Z" id="Path" fill="#E24329"></path>
                                                <polygon id="Path" fill="#FC6D26" points="13.5775862 24.9771552 18.5655172 9.62586207 25.55625 9.62586207 13.5775862 24.9769397"></polygon>
                                                <path d="M25.5560345,9.62564655 L27.0721983,14.2909483 C27.2105724,14.7163913 27.0591616,15.1825451 26.6971983,15.4454741 L13.5775862,24.9771552 L25.5560345,9.62586207 L25.5560345,9.62564655 Z" id="Path" fill="#FCA326"></path>
                                                <path d="M25.5560345,9.62564655 L18.5657328,9.62564655 L21.5700431,0.379525862 C21.724569,-0.0959051724 22.3976293,-0.0959051724 22.5521552,0.379525862 L25.5564655,9.62586207 L25.5560345,9.62564655 Z" id="Path" fill="#E24329"></path>
                                            </g>
                                        </g>
                                    </g>
                                </g>
                            </g>
                        </g>
                    </g>
                </g>
            </g>
        </g>
    </g>
</svg>