<?xml version="1.0" encoding="UTF-8"?>
<svg width="21px" height="25px" viewBox="0 0 21 25" version="1.1" xmlns="http://www.w3.org/2000/svg" xmlns:xlink="http://www.w3.org/1999/xlink">
    <!-- Generator: Sketch 52.6 (67491) - http://www.bohemiancoding.com/sketch -->
    <title>Shape</title>
    <desc>Created with Sketch.</desc>
    <g id="Web-Design" stroke="none" stroke-width="1" fill="none" fill-rule="evenodd">
        <g id="Careers" transform="translate(-612.000000, -3208.000000)" fill="#6762A6" fill-rule="nonzero">
            <g id="Group-21-Copy-2" transform="translate(0.000000, 2002.000000)">
                <g id="Group-26" transform="translate(80.000000, 951.000000)">
                    <g id="Group-38" transform="translate(47.000000, 137.000000)">
                        <g id="TECH">
                            <g id="Group-7">
                                <g id="Group-11">
                                    <g id="Group-36" transform="translate(63.000000, 117.000000)">
                                        <g id="heroku-plain" transform="translate(422.000000, 0.000000)">
                                            <g id="Group-30">
                                                <path d="M17.62,1 L2.38,1 C1.06,1 0,2.06 0,3.38 L0,23.44 C0,24.76 1.06,25.82 2.38,25.82 L17.64,25.82 C18.96,25.82 20.02,24.76 20.02,23.44 L20.02,3.38 C20,2.06 18.94,1 17.62,1 Z M4.6,22.34 L4.6,16.7 L7.42,19.52 L4.6,22.34 Z M15.2,22.4 L12.58,22.4 L12.6,22.36 L12.6,12.48 C12.6,12.48 13.22,10.12 4.66,13.44 C4.64,13.48 4.62,4.3 4.62,4.3 L7.4,4.28 L7.4,10.16 C7.4,10.16 15.2,7.08 15.2,12.5 L15.2,22.4 Z M14.16,7.8 L11.2,7.8 C12.26,6.6 13.24,4.4 13.24,4.4 L16.3,4.4 C16.3,4.4 15.78,5.8 14.16,7.8 Z" id="Shape"></path>
                                            </g>
                                        </g>
                                    </g>
                                </g>
                            </g>
                        </g>
                    </g>
                </g>
            </g>
        </g>
    </g>
</svg>