<?xml version="1.0" encoding="UTF-8"?>
<svg width="23px" height="25px" viewBox="0 0 23 25" version="1.1" xmlns="http://www.w3.org/2000/svg" xmlns:xlink="http://www.w3.org/1999/xlink">
    <!-- Generator: Sketch 52.6 (67491) - http://www.bohemiancoding.com/sketch -->
    <title>Shape</title>
    <desc>Created with Sketch.</desc>
    <g id="Web-Design" stroke="none" stroke-width="1" fill="none" fill-rule="evenodd">
        <g id="Careers" transform="translate(-312.000000, -3150.000000)" fill="#E44D26" fill-rule="nonzero">
            <g id="Group-21-Copy-2" transform="translate(0.000000, 2002.000000)">
                <g id="Group-26" transform="translate(80.000000, 951.000000)">
                    <g id="Group-38" transform="translate(47.000000, 137.000000)">
                        <g id="TECH">
                            <g id="Group-7">
                                <g id="Group-11">
                                    <g id="Group-35" transform="translate(185.000000, 59.000000)">
                                        <g id="Group-26-Copy">
                                            <path d="M0,1 L2.00913297,23.5097193 L11.0248285,26 L20.0654248,23.5125307 L22.0765659,1 L0,1 Z M17.8976497,6.3293733 L17.77174,7.76960335 L17.7163156,8.43007695 L7.14050476,8.43007695 L7.39292657,11.2414574 L17.4648979,11.2414574 L17.3974248,11.938479 L16.7481967,19.1916398 L16.7004032,19.647485 L11.038283,21.2035841 L11.038283,21.2039857 L11.0314553,21.2076004 L5.37315051,19.7169663 L4.98899545,15.4585281 L7.76322554,15.4585281 L7.95982136,17.6512041 L11.029648,18.4707215 L11.038283,18.4707215 L11.038283,18.3610776 L14.1217649,17.5829277 L14.4438688,14.0528379 L4.86549553,14.0528379 L4.18614552,6.39845294 L4.12007808,5.61869648 L17.9639179,5.61869648 L17.8976497,6.3293733 Z" id="Shape"></path>
                                        </g>
                                    </g>
                                </g>
                            </g>
                        </g>
                    </g>
                </g>
            </g>
        </g>
    </g>
</svg>