<?xml version="1.0" encoding="UTF-8"?>
<svg width="22px" height="25px" viewBox="0 0 22 25" version="1.1" xmlns="http://www.w3.org/2000/svg" xmlns:xlink="http://www.w3.org/1999/xlink">
    <!-- Generator: Sketch 52.6 (67491) - http://www.bohemiancoding.com/sketch -->
    <title>Shape</title>
    <desc>Created with Sketch.</desc>
    <g id="Web-Design" stroke="none" stroke-width="1" fill="none" fill-rule="evenodd">
        <g id="Careers" transform="translate(-735.000000, -3093.000000)" fill="#83CD29" fill-rule="nonzero">
            <g id="Group-21-Copy-2" transform="translate(0.000000, 2002.000000)">
                <g id="Group-26" transform="translate(80.000000, 951.000000)">
                    <g id="Group-38" transform="translate(47.000000, 137.000000)">
                        <g id="TECH">
                            <g id="Group-7">
                                <g id="Group-11">
                                    <g id="Group-34" transform="translate(51.000000, 0.000000)">
                                        <g id="Group-23" transform="translate(557.000000, 2.000000)">
                                            <path d="M21.0596311,6.60122951 L12.0233607,1.35430328 C11.4534836,1.02971311 10.7114754,1.02971311 10.1370902,1.35430328 L1.00430328,6.60122951 C0.416188525,6.93954918 -1.6093793e-12,7.57540984 -1.6093793e-12,8.25553279 L-1.6093793e-12,18.7354508 C-1.6093793e-12,19.4155738 0.42704918,20.0516393 1.01516393,20.3918033 L3.42807377,21.7622951 C4.58135246,22.3303279 4.98893443,22.3303279 5.51372951,22.3303279 C7.22131148,22.3303279 8.19672131,21.2977459 8.19672131,19.4967213 L8.19672131,9.15040984 C8.19672131,9.00430328 8.12069672,8.78688525 7.9772541,8.78688525 L6.825,8.78688525 C6.67909836,8.78688525 6.35245902,9.00430328 6.35245902,9.15020492 L6.35245902,19.4965164 C6.35245902,20.294877 5.63032787,21.0893443 4.2807377,20.4145492 L1.7875,18.977459 C1.70061475,18.9303279 1.63934426,18.8354508 1.63934426,18.7354508 L1.63934426,8.25553279 C1.63934426,8.1567623 1.75307377,8.05758197 1.84057377,8.00696721 L10.9438525,2.76905738 C11.0288934,2.72090164 11.1538934,2.72090164 11.2387295,2.76905738 L20.2309426,8.0057377 C20.3170082,8.05758197 20.2866803,8.15368852 20.2866803,8.25553279 L20.2866803,18.7354508 C20.2866803,18.8354508 20.3241803,18.9327869 20.2391393,18.9809426 L11.205123,24.2219262 C11.1276639,24.2684426 11.0315574,24.2684426 10.9467213,24.2219262 L8.62971311,22.8389344 C8.55983607,22.7983607 8.47684426,22.7838115 8.40983607,22.8213115 C7.76516393,23.1866803 7.64631148,23.2352459 7.04159836,23.444877 C6.89282787,23.4967213 6.67336066,23.5866803 7.12561475,23.8401639 L10.1579918,25.6340164 C10.4483607,25.8020492 10.7782787,25.8893443 11.1102459,25.8893443 C11.4467213,25.8893443 11.7762295,25.8020492 12.0665984,25.6340164 L21.0594262,20.3918033 C21.647541,20.0491803 21.9262295,19.4155738 21.9262295,18.7354508 L21.9262295,8.25553279 C21.9262295,7.57540984 21.647541,6.94118852 21.0596311,6.60122951 Z M13.9159836,17.0747951 C11.5131148,17.0747951 10.9838115,16.4118852 10.807377,15.2170082 C10.7868852,15.0883197 10.6776639,14.9344262 10.5467213,14.9344262 L9.37233607,14.9344262 C9.22704918,14.9344262 9.1102459,15.1106557 9.1102459,15.2553279 C9.1102459,16.7852459 9.9420082,18.6389344 13.9161885,18.6389344 C16.7930328,18.6389344 18.442418,17.5211066 18.442418,15.5428279 C18.442418,13.5813525 17.1172131,13.0665984 14.3272541,12.6973361 C11.5071721,12.3245902 11.2206967,12.1362705 11.2206967,11.4756148 C11.2206967,10.9309426 11.4633197,10.2045082 13.5514344,10.2045082 C15.4172131,10.2045082 16.104918,10.604918 16.3879098,11.8625 C16.4120902,11.9807377 16.520082,12.0655738 16.6420082,12.0655738 L17.8211066,12.0655738 C17.8936475,12.0655738 17.9629098,12.0362705 18.0137295,11.9844262 C18.0629098,11.9286885 18.0889344,11.8588115 18.082377,11.7838115 C17.8997951,9.6182377 16.4610656,8.60901639 13.5512295,8.60901639 C10.9629098,8.60901639 9.41885246,9.70204918 9.41885246,11.5342213 C9.41885246,13.5215164 10.955123,14.0706967 13.4397541,14.3163934 C16.4120902,14.6077869 16.6432377,15.0422131 16.6432377,15.6268443 C16.6432377,16.6422131 15.8280738,17.0747951 13.9159836,17.0747951 Z" id="Shape"></path>
                                        </g>
                                    </g>
                                </g>
                            </g>
                        </g>
                    </g>
                </g>
            </g>
        </g>
    </g>
</svg>