<?xml version="1.0" encoding="UTF-8"?>
<svg width="25px" height="25px" viewBox="0 0 25 25" version="1.1" xmlns="http://www.w3.org/2000/svg" xmlns:xlink="http://www.w3.org/1999/xlink">
    <!-- Generator: Sketch 52.6 (67491) - http://www.bohemiancoding.com/sketch -->
    <title>Shape</title>
    <desc>Created with Sketch.</desc>
    <g id="Web-Design" stroke="none" stroke-width="1" fill="none" fill-rule="evenodd">
        <g id="Careers" transform="translate(-323.000000, -3208.000000)" fill="#336791">
            <g id="Group-21-Copy-2" transform="translate(0.000000, 2002.000000)">
                <g id="Group-26" transform="translate(80.000000, 951.000000)">
                    <g id="Group-38" transform="translate(47.000000, 137.000000)">
                        <g id="TECH">
                            <g id="Group-7">
                                <g id="Group-11">
                                    <g id="Group-36" transform="translate(63.000000, 117.000000)">
                                        <g id="php-plain" transform="translate(133.000000, 0.000000)">
                                            <g id="Group-17">
                                                <g id="Group-18">
                                                    <path d="M24.2331967,16.1196721 C24.1409836,15.5217213 23.6387295,15.130123 23.0545082,15.1036885 C22.8430328,15.0940574 22.6282787,15.1161885 22.417418,15.1430328 C22.1627049,15.1754098 21.9110656,15.2327869 21.6569672,15.2706967 C21.4813525,15.2969262 21.3032787,15.3090164 21.1278689,15.3270492 L21.1235656,15.3043033 C21.4510246,14.6858607 21.7922131,14.0741803 22.1020492,13.4469262 C22.3395492,12.9657787 22.5428279,12.4672131 22.7528689,11.9727459 C23.1004098,11.1534836 23.3780738,10.3088115 23.6079918,9.45040984 C23.8282787,8.62848361 24.0168033,7.79754098 24.0760246,6.94487705 C24.0997951,6.60430328 24.1161885,6.26229508 24.1143443,5.92131148 C24.1127049,5.64938525 24.0834016,5.37704918 24.0561475,5.10594262 C24.0254098,4.79528689 23.9315574,4.50081967 23.8016393,4.21741803 C23.6303279,3.84405738 23.3647541,3.53770492 23.0852459,3.24672131 C22.8614754,3.01372951 22.6153689,2.80143443 22.3713115,2.58934426 C22.0233607,2.28668033 21.6321721,2.04508197 21.2258197,1.83053279 C20.7641393,1.58668033 20.2788934,1.39590164 19.7729508,1.2670082 C19.4670082,1.18893443 19.1540984,1.13094262 18.8442623,1.06905738 C18.7327869,1.04651639 18.6211066,1 18.5096311,1 L16.4110656,1 C16.3352459,1 16.260041,1.03913934 16.1836066,1.0477459 C15.6811475,1.10368852 15.1846311,1.19836066 14.702459,1.3477459 C14.5221311,1.40368852 14.357377,1.36844262 14.1860656,1.35266393 C14.0547131,1.34057377 13.9256148,1.30532787 13.7942623,1.29877049 C13.2938525,1.27377049 12.7928279,1.23709016 12.292623,1.24241803 C11.8133197,1.24733607 11.3389344,1.32622951 10.875,1.4579918 C10.4866803,1.5682377 10.1067623,1.70286885 9.75881148,1.90696721 C9.60983607,1.9942623 9.49180328,1.97786885 9.33770492,1.93340164 C8.81987705,1.78401639 8.29836066,1.64364754 7.77233607,1.52581967 C7.44446721,1.45245902 7.10737705,1.41598361 6.77254098,1.38094262 C6.45163934,1.34754098 6.12827869,1.32745902 5.8057377,1.32069672 C5.49057377,1.31393443 5.17315574,1.31413934 4.85942623,1.3420082 C4.35963115,1.38647541 3.8692623,1.48811475 3.39262295,1.65204918 C2.86331967,1.83401639 2.37807377,2.0977459 1.94057377,2.44405738 C1.49651639,2.7954918 1.14036885,3.22459016 0.853893443,3.71454918 C0.55204918,4.23155738 0.345081967,4.78504098 0.216393443,5.36639344 C0.146721311,5.68135246 0.102663934,6.00512295 0.0549180328,6.325 C0.0399590164,6.42459016 0.204918033,6.52418033 0,6.62336066 L0,8.01557377 C0.204918033,8.10819672 0.0426229508,8.20061475 0.0545081967,8.29344262 C0.0829918033,8.51659836 0.108196721,8.74159836 0.145901639,8.96311475 C0.205532787,9.31372951 0.276229508,9.66331967 0.348360656,10.0116803 C0.44897541,10.4983607 0.553688525,10.9846311 0.665163934,11.4688525 C0.746311475,11.8213115 0.838729508,12.1717213 0.93545082,12.5202869 C1.08319672,13.0526639 1.22868852,13.5860656 1.39569672,14.1125 C1.55081967,14.6016393 1.72848361,15.0838115 1.90471311,15.5659836 C2.14877049,16.2329918 2.44098361,16.8784836 2.79139344,17.4971311 C3.09446721,18.0327869 3.44077869,18.5344262 3.90532787,18.9471311 C4.21147541,19.2190574 4.5522541,19.4280738 4.94897541,19.532582 C5.26065574,19.6145492 5.57745902,19.6243852 5.89651639,19.5590164 C6.26639344,19.4831967 6.59385246,19.3239754 6.88504098,19.0854508 C6.91844262,19.0579918 6.95512295,19.0370902 6.99467213,19.0875 C7.14528689,19.2782787 7.34692623,19.4055328 7.55778689,19.5155738 C8.12684426,19.8122951 8.74692623,19.9012295 9.37684426,19.9375 C9.52930328,19.9463115 9.68340164,19.9243852 9.83709016,19.920082 C10.1364754,19.9118852 10.427459,19.8534836 10.7137295,19.7706967 C10.8637295,19.7272541 11.0102459,19.6721311 11.1629098,19.6206967 C11.1709016,19.7831967 11.1811475,19.9397541 11.1858607,20.0963115 L11.2071721,20.95 C11.2110656,21.079918 11.2161885,21.2102459 11.2282787,21.3395492 C11.2592213,21.6729508 11.2895492,22.0065574 11.3293033,22.3389344 C11.3569672,22.5680328 11.3856557,22.7989754 11.4395492,23.022541 C11.5479508,23.4739754 11.694877,23.9135246 11.8817623,24.3397541 C12.0651639,24.7579918 12.3288934,25.1110656 12.6809426,25.4022541 C13.1358607,25.7784836 13.6690574,25.9389344 14.244877,25.9686475 C14.4829918,25.9811475 14.7278689,25.9694672 14.9622951,25.9268443 C15.3338115,25.8594262 15.7045082,25.7745902 16.0661885,25.6655738 C16.8020492,25.4434426 17.4381148,25.0598361 17.9133197,24.439959 C18.1838115,24.0866803 18.4059426,23.7045082 18.5485656,23.282582 C18.6661885,22.9340164 18.7770492,22.5819672 18.8651639,22.2252049 C18.9348361,21.9440574 18.9692623,21.6540984 19.0116803,21.3670082 C19.0397541,21.1770492 19.0565574,20.9852459 19.0741803,20.7938525 C19.1028689,20.4829918 19.1321721,20.1723361 19.1528689,19.8608607 C19.1672131,19.6440574 19.1665984,19.4262295 19.1752049,19.2090164 C19.1778689,19.1428279 19.1885246,19.0770492 19.1946721,19.0110656 C19.2004098,18.95 19.2311475,18.9288934 19.2934426,18.929918 C19.5129098,18.9331967 19.7327869,18.9389344 19.9516393,18.9290984 C20.1969262,18.9180328 20.4444672,18.907582 20.6858607,18.8670082 C21.0295082,18.8094262 21.3715164,18.7366803 21.7084016,18.6483607 C22.1065574,18.5442623 22.4717213,18.3577869 22.8231557,18.1452869 C23.232582,17.8979508 23.6057377,17.6077869 23.9086066,17.2340164 C24.1719262,16.9079918 24.2967213,16.5311475 24.2331967,16.1196721 Z M23.5340164,16.3209016 C23.5204918,16.5084016 23.4346311,16.6690574 23.310041,16.8063525 C22.7221311,17.4545082 21.9846311,17.8477459 21.1409836,18.0413934 C20.8204918,18.1147541 20.4897541,18.1528689 20.1616803,18.1831967 C19.882377,18.2090164 19.5989754,18.2133197 19.3186475,18.2030738 C19.1125,18.1952869 18.9079918,18.1481557 18.6973361,18.1178279 C18.6762295,18.3104508 18.6561475,18.5110656 18.6317623,18.7112705 L18.5336066,19.4786885 C18.5038934,19.7219262 18.4807377,19.9659836 18.4502049,20.2090164 C18.4202869,20.444877 18.3829918,20.679918 18.3516393,20.9157787 C18.3223361,21.1354508 18.3008197,21.3561475 18.2682377,21.5754098 C18.2180328,21.9114754 18.170082,22.2483607 18.1045082,22.5817623 C18.0258197,22.9803279 17.905123,23.3663934 17.7081967,23.7258197 C17.4680328,24.1645492 17.127459,24.4987705 16.6940574,24.7463115 C16.2473361,25.0016393 15.7590164,25.1344262 15.2639344,25.2454918 C14.9135246,25.3241803 14.552459,25.3370902 14.197541,25.305123 C13.5819672,25.2493852 13.0565574,24.9860656 12.6594262,24.5088115 C12.2803279,24.0532787 12.0237705,23.5311475 11.9319672,22.9401639 C11.8881148,22.6592213 11.8565574,22.3758197 11.8313525,22.092623 C11.8034836,21.7776639 11.7844262,21.4616803 11.770082,21.1459016 C11.7518443,20.744877 11.7385246,20.3438525 11.7297131,19.9428279 C11.7188525,19.4497951 11.7153689,18.9567623 11.7084016,18.4637295 L11.7071721,18.444877 C11.4563525,18.5952869 11.2098361,18.760041 10.9483607,18.8956967 C10.6422131,19.0547131 10.3096311,19.1469262 9.96516393,19.1729508 C9.69508197,19.1934426 9.42151639,19.2120902 9.15266393,19.1905738 C8.71188525,19.155123 8.27151639,19.0860656 7.87684426,18.8690574 C7.71680328,18.7809426 7.54979508,18.6737705 7.43954918,18.5329918 C7.17520492,18.1956967 7.30184426,17.7694672 7.70040984,17.5643443 C7.97581967,17.4223361 8.27643443,17.3631148 8.575,17.2940574 C8.83442623,17.2340164 9.09262295,17.1657787 9.34569672,17.0831967 C9.59610656,17.0012295 9.75409836,16.7981557 9.91004098,16.5989754 L10.1571721,16.2811475 C10.0540984,16.2702869 9.95696721,16.2592213 9.85983607,16.2502049 C9.56495902,16.2223361 9.28360656,16.1411885 9.01454918,16.0219262 C8.78422131,15.920082 8.7807377,15.9090164 8.61188525,16.0922131 C8.32991803,16.3983607 8.0557377,16.7116803 7.7795082,17.0229508 C7.57622951,17.2518443 7.37418033,17.4821721 7.17192623,17.7116803 C6.97151639,17.9387295 6.78381148,18.1786885 6.56803279,18.389959 C6.24754098,18.7036885 5.86127049,18.892418 5.40040984,18.8711066 C5.10471311,18.857582 4.83401639,18.7538934 4.59057377,18.5844262 C4.08811475,18.2344262 3.74959016,17.744877 3.44139344,17.2307377 C3.04651639,16.5719262 2.74344262,15.870082 2.48401639,15.1489754 C2.3045082,14.6506148 2.12418033,14.1518443 1.96741803,13.6463115 C1.79713115,13.0969262 1.6477459,12.5405738 1.50081967,11.9844262 C1.3897541,11.5647541 1.29118852,11.1415984 1.19713115,10.717623 C1.09036885,10.2354508 0.987704918,9.75245902 0.897131148,9.2670082 C0.836065574,8.93934426 0.800614754,8.60696721 0.751229508,8.27704918 C0.684631148,7.83237705 0.672336066,7.38360656 0.696516393,6.93709016 C0.718032787,6.53483607 0.775819672,6.13360656 0.833196721,5.73401639 C0.912704918,5.18114754 1.09487705,4.65942623 1.35696721,4.16680328 C1.51741803,3.86495902 1.71659836,3.59057377 1.94692623,3.33565574 C2.325,2.91721311 2.78258197,2.6147541 3.29159836,2.38770492 C3.64733607,2.22909836 4.02315574,2.13360656 4.40614754,2.05901639 C4.97459016,1.94836066 5.54815574,1.95266393 6.12192623,1.96454918 C6.3727459,1.96967213 6.62254098,2.01536885 6.87315574,2.04016393 C7.41270492,2.09385246 7.94159836,2.20737705 8.46372951,2.34754098 C8.8442623,2.44959016 9.2170082,2.5817623 9.59446721,2.69651639 C9.63237705,2.7079918 9.68790984,2.70696721 9.71885246,2.68668033 C10.2303279,2.35286885 10.7893443,2.13258197 11.3838115,2.00655738 C11.6094262,1.95881148 11.8422131,1.93790984 12.0729508,1.92315574 C12.3534836,1.90532787 12.6362705,1.88893443 12.9161885,1.90512295 C13.2526639,1.92438525 13.5875,1.97397541 13.9219262,2.01987705 C14.0842213,2.0420082 14.242623,2.09836066 14.4053279,2.11372951 C14.4831967,2.12110656 14.5657787,2.06413934 14.6481557,2.04508197 C15.0680328,1.94815574 15.4860656,1.84016393 15.9096311,1.76352459 C16.225,1.70655738 16.5471311,1.67971311 16.8678279,1.66127049 C17.2254098,1.64077869 17.5856557,1.62581967 17.9430328,1.64303279 C18.394877,1.6647541 18.8434426,1.72909836 19.2862705,1.83217213 C19.8348361,1.95983607 20.3610656,2.14528689 20.8612705,2.40266393 C21.235041,2.59487705 21.5903689,2.81782787 21.9102459,3.0920082 C22.119877,3.27192623 22.3344262,3.44959016 22.5237705,3.65 C22.757377,3.89713115 22.9956967,4.14446721 23.1422131,4.46106557 C23.252459,4.69979508 23.3311475,4.94692623 23.3528689,5.20840164 C23.379918,5.53340164 23.4127049,5.85963115 23.4096311,6.18504098 C23.4067623,6.49631148 23.3643443,6.80737705 23.3342213,7.11782787 C23.2657787,7.82561475 23.1118852,8.51803279 22.925,9.20122951 C22.7704918,9.76557377 22.589959,10.3237705 22.3944672,10.8754098 C22.2143443,11.3838115 22.0065574,11.8829918 21.7965164,12.380123 C21.6413934,12.7477459 21.4743852,13.1114754 21.2928279,13.4668033 C20.9491803,14.1401639 20.5918033,14.8065574 20.1784836,15.4407787 C20.1071721,15.5504098 20.0395492,15.6627049 19.969877,15.7745902 C20.1502049,15.8963115 20.3545082,15.9391393 20.5602459,15.9612705 C20.7559426,15.982582 20.9555328,15.9952869 21.1510246,15.9807377 C21.4639344,15.957582 21.7758197,15.9129098 22.0868852,15.8692623 C22.395082,15.8262295 22.6971311,15.7385246 23.0135246,15.7616803 C23.3295082,15.7846311 23.5555328,16.0247951 23.5340164,16.3209016 Z M19.0231557,15.6338115 C18.8889344,15.4604508 18.7520492,15.2891393 18.6206967,15.1137295 C18.4145492,14.8383197 18.2663934,14.5307377 18.117623,14.2217213 C17.9766393,13.9288934 17.8036885,13.6516393 17.655123,13.3620902 C17.3959016,12.8569672 17.1319672,12.3534836 16.8932377,11.8385246 C16.5930328,11.1915984 16.3563525,10.5217213 16.2817623,9.80512295 C16.2502049,9.50184426 16.2422131,9.19897541 16.3034836,8.89856557 C16.4016393,8.41885246 16.6522541,8.04364754 17.0735656,7.78627049 C17.4643443,7.54754098 17.8997951,7.4704918 18.3459016,7.44631148 C18.6227459,7.43135246 18.9008197,7.44364754 19.1881148,7.44364754 L19.1784836,7.39508197 C18.9997951,7.02151639 18.8327869,6.64159836 18.6372951,6.27684426 C18.3614754,5.76209016 18.0086066,5.29795082 17.6155738,4.86762295 C17.3243852,4.54897541 17.0090164,4.25327869 16.6635246,3.9920082 C16.3237705,3.73483607 15.9657787,3.50512295 15.5838115,3.31721311 C15.1282787,3.0932377 14.6538934,2.92008197 14.1561475,2.80963115 C13.6778689,2.70348361 13.1965164,2.63852459 12.7059426,2.63319672 C12.2875,2.62868852 11.8717213,2.64754098 11.4641393,2.7420082 C10.8489754,2.88442623 10.2862705,3.13770492 9.79672131,3.54795082 C9.52336066,3.77704918 9.28483607,4.03422131 9.07602459,4.3204918 C8.83094262,4.65717213 8.63319672,5.02069672 8.46413934,5.40184426 C8.23217213,5.92479508 8.07295082,6.46905738 7.96413934,7.02848361 C7.90963115,7.30737705 7.8670082,7.58872951 7.82356557,7.86987705 C7.80840164,7.9682377 7.80717213,8.06885246 7.79836066,8.18155738 C7.87397541,8.14221311 7.92848361,8.11188525 7.98422131,8.08483607 L8.16557377,8.00348361 C8.77889344,7.72295082 9.41434426,7.54241803 10.0973361,7.56311475 C10.3875,7.57192623 10.6651639,7.62930328 10.9231557,7.75635246 C11.4180328,8.00040984 11.707582,8.41536885 11.8334016,8.94057377 C11.9202869,9.30307377 11.9797131,9.6727459 12.0375,10.0413934 C12.0827869,10.3293033 12.1290984,10.6202869 12.1344262,10.9106557 C12.1420082,11.335041 12.1204918,11.7602459 12.0973361,12.1844262 C12.0776639,12.5459016 12.0022541,12.9016393 11.8760246,13.2389344 C11.6465164,13.8522541 11.3907787,14.4555328 11.1518443,15.0653689 C11.0729508,15.2668033 11.0122951,15.4754098 10.9377049,15.6969262 C11.0528689,15.6969262 11.1463115,15.6961066 11.2397541,15.6973361 C11.2762295,15.6979508 11.3135246,15.6989754 11.3487705,15.707377 C11.6233607,15.7721311 11.8614754,15.8965164 12.0567623,16.1077869 C12.3172131,16.3889344 12.4538934,16.7170082 12.4608607,17.0967213 C12.4647541,17.3071721 12.442623,17.5182377 12.4436475,17.7286885 C12.4479508,18.7094262 12.4553279,19.6901639 12.4635246,20.6706967 C12.464959,20.8309426 12.4729508,20.9913934 12.4844262,21.1514344 C12.5084016,21.4864754 12.532582,21.8217213 12.5653689,22.1559426 C12.5883197,22.3930328 12.6202869,22.6297131 12.6577869,22.8651639 C12.7108607,23.1987705 12.8627049,23.4956967 13.035041,23.7795082 C13.1834016,24.0235656 13.3762295,24.2309426 13.6303279,24.3739754 C14.0620902,24.6170082 14.5270492,24.6372951 14.9956967,24.5477459 C15.3122951,24.4872951 15.6231557,24.3901639 15.9305328,24.289959 C16.2336066,24.1913934 16.507377,24.029918 16.7372951,23.807582 C16.9526639,23.5987705 17.1055328,23.3442623 17.2086066,23.0633197 C17.4086066,22.5184426 17.4709016,21.9446721 17.5536885,21.3754098 C17.5846311,21.1622951 17.6114754,20.9485656 17.6397541,20.735041 C17.6719262,20.4920082 17.7045082,20.2491803 17.7356557,20.0063525 C17.7586066,19.8254098 17.7795082,19.6440574 17.8016393,19.4631148 C17.8331967,19.2032787 17.8665984,18.9436475 17.8967213,18.6836066 C17.919877,18.482582 17.9395492,18.2807377 17.960041,18.0793033 C17.9864754,17.8219262 18.014959,17.5645492 18.0377049,17.3067623 C18.0553279,17.1110656 18.0481557,16.9118852 18.0827869,16.719877 C18.1465164,16.3678279 18.3129098,16.0682377 18.625,15.8745902 C18.7555328,15.7936475 18.9028689,15.7403689 19.0477459,15.6719262 L19.0231557,15.6338115 Z M7.2204918,14.1887295 C7.06454918,13.8194672 6.97090164,13.4346311 6.94303279,13.0366803 C6.91680328,12.6627049 6.96127049,12.2901639 6.99959016,11.9178279 C7.03688525,11.5571721 7.06782787,11.194877 7.07868852,10.832582 C7.09672131,10.2370902 7.05655738,9.64241803 7.02807377,9.04733607 C7.01086066,8.69303279 7.05204918,8.33442623 7.08360656,7.97930328 C7.11209016,7.65942623 7.14754098,7.33872951 7.2079918,7.02356557 C7.30942623,6.49467213 7.44405738,5.97336066 7.63545082,5.46803279 C7.81721311,4.98893443 8.02602459,4.52233607 8.32090164,4.1022541 C8.52295082,3.81413934 8.7522541,3.54487705 8.97254098,3.26331967 L8.90717213,3.24016393 C8.19036885,3.0125 7.46188525,2.83463115 6.71270492,2.75696721 C6.35840164,2.72028689 6.00286885,2.69877049 5.64754098,2.67766393 C5.53852459,2.67110656 5.42786885,2.68586066 5.31844262,2.69631148 C5.04754098,2.72213115 4.77336066,2.73237705 4.5067623,2.78319672 C4.05307377,2.86946721 3.61782787,3.01454918 3.2147541,3.25081967 C2.85286885,3.46290984 2.54897541,3.73709016 2.29446721,4.06598361 C2.01331967,4.42909836 1.82418033,4.8397541 1.68831967,5.27766393 C1.52786885,5.7942623 1.45143443,6.32581967 1.4307377,6.86229508 C1.41270492,7.33258197 1.40368852,7.80553279 1.48483607,8.27397541 C1.54528689,8.6227459 1.58565574,8.97520492 1.6522541,9.32254098 C1.74303279,9.79610656 1.84036885,10.2686475 1.95286885,10.7372951 C2.11372951,11.4081967 2.27438525,12.080123 2.46495902,12.7428279 C2.64733607,13.3778689 2.85307377,14.0071721 3.07602459,14.6288934 C3.25840164,15.1362705 3.4692623,15.6342213 3.69139344,16.1256148 C3.83606557,16.4456967 4.01127049,16.7536885 4.19487705,17.0534836 C4.39016393,17.3717213 4.61229508,17.6737705 4.91372951,17.9047131 C5.29405738,18.1963115 5.58852459,18.2415984 5.975,17.9217213 C6.14057377,17.7846311 6.28053279,17.6153689 6.42459016,17.4540984 C6.65348361,17.1979508 6.87438525,16.9348361 7.1022541,16.6778689 C7.39241803,16.3504098 7.68627049,16.0264344 7.97786885,15.7006148 C8.03954918,15.6317623 8.09877049,15.5608607 8.15881148,15.4911885 L8.05963115,15.4040984 C7.69713115,15.0559426 7.41639344,14.6522541 7.2204918,14.1887295 Z M18.2221311,4.44098361 C18.4590164,4.71885246 18.6883197,5.00491803 18.9002049,5.30245902 C19.310041,5.87807377 19.6375,6.49959016 19.8786885,7.16454918 C19.9854508,7.45758197 20.0706967,7.75348361 20.032582,8.07418033 C20.0061475,8.29877049 20.0084016,8.52663934 19.9885246,8.75245902 C19.9719262,8.94036885 19.9422131,9.1272541 19.9178279,9.31454918 C19.8813525,9.59692623 19.8284836,9.87848361 19.8127049,10.1620902 C19.7977459,10.4319672 19.8133197,10.7047131 19.8303279,10.9752049 C19.847541,11.25 19.8846311,11.5235656 19.9098361,11.7979508 C19.9383197,12.1090164 19.9766393,12.420082 19.9854508,12.7317623 C19.992623,12.9877049 19.969877,13.2452869 19.947541,13.5008197 C19.9209016,13.8086066 19.8428279,14.1065574 19.7264344,14.392418 C19.6446721,14.5936475 19.5469262,14.7887295 19.4545082,14.9901639 L19.4915984,15.0295082 L19.5479508,15.0731557 L19.6047131,14.9715164 C20.0840164,14.2157787 20.5104508,13.4309426 20.8797131,12.6163934 C21.1172131,12.0918033 21.3397541,11.5598361 21.5532787,11.025 C21.8860656,10.1922131 22.1493852,9.33606557 22.3530738,8.46290984 C22.4444672,8.07090164 22.5143443,7.67295082 22.5764344,7.275 C22.6247951,6.96393443 22.6651639,6.64918033 22.6741803,6.3352459 C22.6838115,6.0022541 22.6653689,5.66659836 22.6346311,5.33442623 C22.6116803,5.08360656 22.5497951,4.83114754 22.392623,4.6272541 C22.139959,4.29897541 21.8672131,3.98504098 21.5317623,3.73668033 C21.2493852,3.52745902 20.9680328,3.31290984 20.664959,3.13688525 C20.1844262,2.85819672 19.6643443,2.67254098 19.1209016,2.54610656 C18.5905738,2.42254098 18.0532787,2.3692623 17.5125,2.3579918 C17.1936475,2.35122951 16.8733607,2.38545082 16.555123,2.41536885 C16.2668033,2.44241803 15.9803279,2.48852459 15.689959,2.52663934 C16.0014344,2.70184426 16.3086066,2.85758197 16.5983607,3.04118852 C17.207582,3.42704918 17.7534836,3.89139344 18.2221311,4.44098361 Z M10.3071721,15.2446721 C10.5040984,14.614959 10.7723361,14.0137295 11.0321721,13.4088115 C11.2428279,12.9182377 11.3579918,12.4014344 11.3963115,11.8706967 C11.4153689,11.6090164 11.410041,11.3440574 11.3971311,11.0815574 C11.382582,10.789959 11.3592213,10.497541 11.3168033,10.2088115 C11.2622951,9.8397541 11.2002049,9.4704918 11.1129098,9.10819672 C11.0182377,8.71618852 10.7795082,8.4432377 10.3704918,8.34262295 C10.1213115,8.28135246 9.87377049,8.28381148 9.62192623,8.32356557 C9.0067623,8.4204918 8.44364754,8.64713115 7.91905738,8.97909836 C7.81352459,9.04590164 7.75553279,9.09979508 7.77377049,9.25122951 C7.81229508,9.57192623 7.82069672,9.8977459 7.8192623,10.2215164 C7.81721311,10.6797131 7.7977459,11.1379098 7.78032787,11.5959016 C7.77459016,11.745082 7.75307377,11.8934426 7.73709016,12.0420082 C7.7125,12.2694672 7.66516393,12.4967213 7.66659836,12.7237705 C7.66803279,12.9577869 7.6920082,13.1973361 7.74877049,13.4239754 C7.92909836,14.142623 8.31106557,14.7307377 8.93709016,15.1456967 C9.32213115,15.4008197 9.74815574,15.5295082 10.2157787,15.5538934 C10.247541,15.4465164 10.2758197,15.345082 10.3071721,15.2446721 Z M9.57233607,9.07930328 C9.48995902,8.90635246 9.53709016,8.76311475 9.72807377,8.69672131 C9.77459016,8.68032787 9.82254098,8.66290984 9.87090164,8.65819672 C9.93729508,8.65163934 10.004918,8.65655738 10.0721311,8.65655738 C10.3143443,8.65778689 10.5473361,8.69159836 10.7473361,8.84569672 C10.8756148,8.94446721 10.910041,9.07561475 10.8270492,9.2102459 C10.7092213,9.40122951 10.5295082,9.49713115 10.3088115,9.51557377 C9.96106557,9.54446721 9.7170082,9.38237705 9.57233607,9.07930328 Z M19.2116803,9.01618852 C19.2395492,8.78586066 19.2618852,8.55491803 19.2903689,8.32459016 C19.3018443,8.23196721 19.2530738,8.20696721 19.1754098,8.20471311 C18.9311475,8.19795082 18.6868852,8.18934426 18.442623,8.18483607 C18.1672131,8.17991803 17.8991803,8.22418033 17.6442623,8.32889344 C17.3614754,8.44528689 17.1461066,8.6317623 17.0581967,8.93954918 C16.992623,9.16905738 16.975,9.39836066 16.9981557,9.63831967 C17.0334016,10.0040984 17.1145492,10.3590164 17.242623,10.6989754 C17.4135246,11.1540984 17.592418,11.6090164 17.8061475,12.045082 C18.0956967,12.6354508 18.4233607,13.2069672 18.7309426,13.7883197 C18.8131148,13.9434426 18.8821721,14.1053279 18.9678279,14.2864754 C19.1471311,13.9067623 19.2346311,13.5266393 19.2446721,13.1344262 C19.2530738,12.8045082 19.2266393,12.4731557 19.207377,12.1430328 C19.1952869,11.9409836 19.1668033,11.7401639 19.1471311,11.5385246 C19.1196721,11.257582 19.0780738,10.9768443 19.0717213,10.6952869 C19.0653689,10.4090164 19.0856557,10.1211066 19.1102459,9.8352459 C19.1334016,9.56106557 19.1786885,9.28913934 19.2116803,9.01618852 Z M18.6606557,8.79446721 C18.569877,9.04508197 18.3758197,9.18647541 18.1241803,9.22807377 C17.8895492,9.26659836 17.6840164,9.17991803 17.5311475,8.99282787 C17.4223361,8.85963115 17.4639344,8.70184426 17.6270492,8.61188525 C17.8143443,8.50819672 18.0202869,8.48196721 18.2631148,8.46618852 C18.3290984,8.47827869 18.4284836,8.48831967 18.5229508,8.51536885 C18.660041,8.55409836 18.7106557,8.65717213 18.6606557,8.79446721 Z M11.4020492,16.5116803 C11.2678279,16.4020492 11.0903689,16.3956967 10.9627049,16.5159836 C10.8043033,16.6655738 10.664959,16.8366803 10.5256148,17.0053279 C10.3647541,17.2002049 10.2139344,17.4028689 10.0063525,17.5538934 C9.70430328,17.7733607 9.3522541,17.8643443 8.99836066,17.9504098 C8.7170082,18.0188525 8.43442623,18.082377 8.1522541,18.1481557 L8.14877049,18.1846311 C8.23258197,18.2233607 8.31372951,18.2717213 8.40102459,18.2993852 C8.83135246,18.4356557 9.26905738,18.5034836 9.72377049,18.464959 C10.0520492,18.4370902 10.3647541,18.3655738 10.6610656,18.225 C11.0688525,18.0317623 11.382582,17.7256148 11.6493852,17.3694672 C11.6940574,17.310041 11.7143443,17.2221311 11.7196721,17.1454918 C11.7379098,16.8747951 11.6004098,16.6735656 11.4020492,16.5116803 Z M22.0067623,16.6194672 C21.6604508,16.6565574 21.3137295,16.6959016 20.9663934,16.7157787 C20.7987705,16.7254098 20.6286885,16.6934426 20.4594262,16.6797131 C20.1756148,16.6567623 19.8985656,16.5936475 19.6586066,16.4420082 C19.5196721,16.3545082 19.4043033,16.3446721 19.2567623,16.3942623 C19.0461066,16.4651639 18.8741803,16.5729508 18.8233607,16.8012295 C18.7887295,16.9555328 18.7762295,17.1153689 18.7622951,17.2733607 C18.7596311,17.3012295 18.7944672,17.352459 18.8211066,17.3594262 C18.9836066,17.4022541 19.1469262,17.4528689 19.3131148,17.4678279 C19.5172131,17.4862705 19.725,17.4803279 19.9305328,17.470082 C20.152459,17.4590164 20.3758197,17.4446721 20.5944672,17.4077869 C21.1098361,17.3213115 21.6084016,17.1803279 22.0512295,16.8881148 C22.2108607,16.782582 22.3690574,16.6747951 22.5276639,16.5680328 L22.5145492,16.5454918 C22.3452869,16.5706967 22.1768443,16.6014344 22.0067623,16.6194672 Z" id="Shape"></path>
                                                </g>
                                            </g>
                                        </g>
                                    </g>
                                </g>
                            </g>
                        </g>
                    </g>
                </g>
            </g>
        </g>
    </g>
</svg>