<?xml version="1.0" encoding="UTF-8"?>
<svg width="28px" height="25px" viewBox="0 0 28 25" version="1.1" xmlns="http://www.w3.org/2000/svg" xmlns:xlink="http://www.w3.org/1999/xlink">
    <!-- Generator: Sketch 52.6 (67491) - http://www.bohemiancoding.com/sketch -->
    <title>Shape</title>
    <desc>Created with Sketch.</desc>
    <g id="Web-Design" stroke="none" stroke-width="1" fill="none" fill-rule="evenodd">
        <g id="Careers" transform="translate(-605.000000, -3093.000000)" fill="#61DAFB">
            <g id="Group-21-Copy-2" transform="translate(0.000000, 2002.000000)">
                <g id="Group-26" transform="translate(80.000000, 951.000000)">
                    <g id="Group-38" transform="translate(47.000000, 137.000000)">
                        <g id="TECH">
                            <g id="Group-7">
                                <g id="Group-11">
                                    <g id="Group-34" transform="translate(51.000000, 0.000000)">
                                        <g id="Group-22" transform="translate(427.000000, 2.000000)">
                                            <path d="M23.6383929,9.28125 C23.1473214,9.10267857 22.6339286,8.92410714 22.0982143,8.76785714 C22.2321429,8.23214286 22.34375,7.69642857 22.4330357,7.18303571 C22.9017857,4.23660714 22.3883929,2.16071429 20.9598214,1.35714286 C20.5357143,1.11160714 20.0669643,1 19.53125,1 C17.96875,1 15.9821429,2.16071429 13.9732143,4.10267857 C11.9642857,2.16071429 9.97767857,1 8.41517857,1 C7.87946429,1 7.41071429,1.11160714 6.98660714,1.35714286 C5.55803571,2.18303571 5.04464286,4.25892857 5.51339286,7.18303571 C5.60267857,7.69642857 5.71428571,8.23214286 5.84821429,8.76785714 C5.3125,8.92410714 4.79910714,9.08035714 4.30803571,9.28125 C1.51785714,10.3526786 0,11.8258929 0,13.4776786 C0,15.1294643 1.54017857,16.6026786 4.30803571,17.6741071 C4.79910714,17.8526786 5.3125,18.03125 5.84821429,18.1875 C5.71428571,18.7232143 5.60267857,19.2589286 5.51339286,19.7723214 C5.04464286,22.71875 5.55803571,24.7946429 6.98660714,25.5982143 C7.41071429,25.84375 7.87946429,25.9553571 8.41517857,25.9553571 C10,25.9553571 11.9866071,24.7946429 13.9732143,22.8526786 C15.9821429,24.7946429 17.96875,25.9553571 19.53125,25.9553571 C20.0669643,25.9553571 20.5357143,25.84375 20.9598214,25.5982143 C22.3883929,24.7723214 22.9017857,22.6964286 22.4330357,19.7723214 C22.34375,19.2589286 22.2321429,18.7232143 22.0982143,18.1875 C22.6339286,18.03125 23.1473214,17.875 23.6383929,17.6741071 C26.4285714,16.6026786 27.9464286,15.1294643 27.9464286,13.4776786 C27.9464286,11.8258929 26.4285714,10.3526786 23.6383929,9.28125 Z M20.3348214,2.47321429 C21.25,3.00892857 21.5625,4.66071429 21.1830357,7.00446429 C21.1160714,7.47321429 21.0044643,7.96428571 20.8705357,8.47767857 C19.7098214,8.20982143 18.4821429,8.03125 17.1875,7.91964286 C16.4285714,6.84821429 15.6473214,5.88839286 14.8660714,5.01785714 C16.5178571,3.38839286 18.1919643,2.27232143 19.5535714,2.27232143 C19.84375,2.27232143 20.1116071,2.33928571 20.3348214,2.47321429 Z M17.8348214,15.7098214 C17.4330357,16.4241071 16.9642857,17.1383929 16.4732143,17.8526786 C15.6473214,17.9196429 14.8214286,17.9419643 13.9732143,17.9419643 C13.1026786,17.9419643 12.2767857,17.9196429 11.4732143,17.8526786 C10.9821429,17.1383929 10.5357143,16.4241071 10.1339286,15.7098214 C9.70982143,14.9732143 9.30803571,14.2142857 8.95089286,13.4776786 C9.30803571,12.7410714 9.70982143,11.9821429 10.1339286,11.2455357 C10.5357143,10.53125 11.0044643,9.81696429 11.4955357,9.10267857 C12.3214286,9.03571429 13.1473214,9.01339286 13.9955357,9.01339286 C14.8660714,9.01339286 15.6919643,9.03571429 16.4955357,9.10267857 C16.9866071,9.81696429 17.4330357,10.53125 17.8348214,11.2455357 C18.2589286,11.9821429 18.6607143,12.7410714 19.0178571,13.4776786 C18.6383929,14.2142857 18.2589286,14.9508929 17.8348214,15.7098214 Z M19.6875,14.9732143 C20.0223214,15.7544643 20.2901786,16.5133929 20.5357143,17.2723214 C19.7767857,17.4508929 18.9732143,17.5848214 18.125,17.6964286 C18.3928571,17.2723214 18.6830357,16.8258929 18.9285714,16.3571429 C19.1964286,15.8883929 19.4419643,15.4196429 19.6875,14.9732143 Z M13.9732143,21.0223214 C13.4375,20.4419643 12.9241071,19.8169643 12.4330357,19.1696429 C12.9464286,19.1919643 13.4598214,19.2142857 13.9732143,19.2142857 C14.4866071,19.2142857 15,19.1919643 15.5133929,19.1696429 C15.0223214,19.8169643 14.5089286,20.4419643 13.9732143,21.0223214 Z M9.82142857,17.6741071 C8.97321429,17.5625 8.16964286,17.4285714 7.41071429,17.25 C7.65625,16.5133929 7.92410714,15.7321429 8.25892857,14.9508929 C8.50446429,15.3973214 8.75,15.8660714 9.01785714,16.3125 C9.28571429,16.8035714 9.55357143,17.2276786 9.82142857,17.6741071 Z M8.25892857,11.9821429 C7.92410714,11.2008929 7.65625,10.4419643 7.41071429,9.68303571 C8.16964286,9.50446429 8.97321429,9.37053571 9.82142857,9.25892857 C9.55357143,9.68303571 9.26339286,10.1294643 9.01785714,10.5982143 C8.75,11.0669643 8.50446429,11.5357143 8.25892857,11.9821429 Z M13.9732143,5.93303571 C14.5089286,6.51339286 15.0223214,7.13839286 15.5133929,7.78571429 C15,7.76339286 14.4866071,7.74107143 13.9732143,7.74107143 C13.4598214,7.74107143 12.9464286,7.76339286 12.4330357,7.78571429 C12.9241071,7.13839286 13.4375,6.51339286 13.9732143,5.93303571 Z M18.9285714,10.6205357 L18.125,9.28125 C18.9732143,9.39285714 19.7767857,9.52678571 20.5357143,9.70535714 C20.2901786,10.4419643 20.0223214,11.2232143 19.6875,12.0044643 C19.4419643,11.5357143 19.1964286,11.0669643 18.9285714,10.6205357 Z M6.76339286,7.00446429 C6.38392857,4.66071429 6.69642857,3.00892857 7.61160714,2.47321429 C7.83482143,2.33928571 8.10267857,2.27232143 8.39285714,2.27232143 C9.73214286,2.27232143 11.40625,3.36607143 13.0803571,5.01785714 C12.2991071,5.86607143 11.5178571,6.84821429 10.7589286,7.91964286 C9.46428571,8.03125 8.23660714,8.23214286 7.07589286,8.47767857 C6.94196429,7.96428571 6.85267857,7.47321429 6.76339286,7.00446429 Z M1.25,13.4776786 C1.25,12.4285714 2.52232143,11.3125 4.75446429,10.4866071 C5.20089286,10.3080357 5.69196429,10.1517857 6.18303571,10.0178571 C6.54017857,11.1339286 6.98660714,12.3169643 7.52232143,13.5 C6.98660714,14.6830357 6.51785714,15.84375 6.18303571,16.9598214 C3.10267857,16.0669643 1.25,14.7276786 1.25,13.4776786 Z M7.61160714,24.4821429 C6.69642857,23.9464286 6.38392857,22.2946429 6.76339286,19.9508929 C6.83035714,19.4821429 6.94196429,18.9910714 7.07589286,18.4776786 C8.23660714,18.7455357 9.46428571,18.9241071 10.7589286,19.0357143 C11.5178571,20.1071429 12.2991071,21.0669643 13.0803571,21.9375 C11.4285714,23.5669643 9.75446429,24.6830357 8.39285714,24.6830357 C8.10267857,24.6830357 7.83482143,24.6160714 7.61160714,24.4821429 Z M21.1830357,19.9508929 C21.5625,22.2946429 21.25,23.9464286 20.3348214,24.4821429 C20.1116071,24.6160714 19.84375,24.6830357 19.5535714,24.6830357 C18.2142857,24.6830357 16.5401786,23.5892857 14.8660714,21.9375 C15.6473214,21.0892857 16.4285714,20.1071429 17.1875,19.0357143 C18.4821429,18.9241071 19.7098214,18.7232143 20.8705357,18.4776786 C21.0044643,18.9910714 21.09375,19.4821429 21.1830357,19.9508929 Z M23.1919643,16.46875 C22.7455357,16.6473214 22.2544643,16.8035714 21.7633929,16.9375 C21.40625,15.8214286 20.9598214,14.6383929 20.4241071,13.4553571 C20.9598214,12.2723214 21.4285714,11.1116071 21.7633929,9.99553571 C24.84375,10.8883929 26.6964286,12.2276786 26.6964286,13.4776786 C26.6964286,14.5267857 25.4017857,15.6428571 23.1919643,16.46875 Z" id="Shape" fill-rule="nonzero"></path>
                                            <path d="M14,16.1006768 C15.4053674,16.1006768 16.5446429,14.9614014 16.5446429,13.5560339 C16.5446429,12.1506665 15.4053674,11.0113911 14,11.0113911 C12.5946326,11.0113911 11.4553571,12.1506665 11.4553571,13.5560339 C11.4553571,14.9614014 12.5946326,16.1006768 14,16.1006768 Z" id="Oval"></path>
                                        </g>
                                    </g>
                                </g>
                            </g>
                        </g>
                    </g>
                </g>
            </g>
        </g>
    </g>
</svg>